<svg width="21" height="20" viewBox="0 0 21 20" fill="none" xmlns="http://www.w3.org/2000/svg">
<path d="M18.7904 4.74931V1.66195C18.7904 1.44208 18.7031 1.2312 18.5476 1.07573C18.3921 0.920253 18.1813 0.832908 17.9614 0.832908C17.7415 0.832908 17.5306 0.920253 17.3752 1.07573C17.2197 1.2312 17.1324 1.44208 17.1324 1.66195V3.62347L12.8188 0.712697C12.1347 0.248286 11.3269 0 10.5 0C9.67313 0 8.86531 0.248286 8.18117 0.712697L2.37787 4.6291C1.81518 5.0084 1.35434 5.52017 1.03586 6.11938C0.717391 6.7186 0.551054 7.38689 0.551484 8.06548V15.7557C0.551484 18.0414 2.41103 19.9009 4.6967 19.9009H7.18383C7.40371 19.9009 7.61458 19.8136 7.77005 19.6581C7.92553 19.5026 8.01287 19.2917 8.01287 19.0719V12.4395C8.01287 11.9827 8.38429 11.6105 8.84192 11.6105H12.1581C12.6157 11.6105 12.9871 11.9827 12.9871 12.4395V19.0719C12.9871 19.2917 13.0745 19.5026 13.23 19.6581C13.3854 19.8136 13.5963 19.9009 13.8162 19.9009H16.3033C18.589 19.9009 20.4485 18.0414 20.4485 15.7557V8.06548C20.4488 7.4219 20.2992 6.7871 20.0113 6.21147C19.7235 5.63583 19.3055 5.1352 18.7904 4.74931ZM18.7904 15.7557C18.7904 17.1269 17.6745 18.2428 16.3033 18.2428H14.6452V12.4395C14.6452 11.0683 13.5293 9.95238 12.1581 9.95238H8.84192C7.47068 9.95238 6.35479 11.0683 6.35479 12.4395V18.2428H4.6967C3.32546 18.2428 2.20957 17.1269 2.20957 15.7557V8.06548C2.20957 7.23727 2.61912 6.46626 3.30557 6.00365L9.10887 2.08725C9.51911 1.80853 10.0036 1.65951 10.4996 1.65951C10.9956 1.65951 11.4801 1.80853 11.8903 2.08725L17.6936 6.00365C18.0314 6.23111 18.308 6.53814 18.4991 6.89769C18.6902 7.25725 18.79 7.65829 18.7896 8.06548L18.7904 15.7557Z" fill="black"/>
</svg>
